<?xml version="1.0" encoding="UTF-8"?>
<svg version="1.1" xmlns="http://www.w3.org/2000/svg" width="1024" height="1024">
<path d="M0 0 C337.92 0 675.84 0 1024 0 C1024 337.92 1024 675.84 1024 1024 C686.08 1024 348.16 1024 0 1024 C0 686.08 0 348.16 0 0 Z " fill="#FEFEFE" transform="translate(0,0)"/>
<path d="M0 0 C3.07978419 0.00317151 6.15861378 -0.02046324 9.23828125 -0.0456543 C34.01359264 -0.12437356 64.70115611 2.79698342 87.08203125 14.31567383 C88.92774202 15.02556258 90.78261814 15.71193825 92.64453125 16.37817383 C126.63571379 29.45170557 154.55958692 50.74967584 180.08203125 76.31567383 C180.75363281 76.94086914 181.42523437 77.56606445 182.1171875 78.21020508 C199.2765618 94.44383278 211.74372668 116.3017556 222.08203125 137.31567383 C222.44425781 138.04866699 222.80648438 138.78166016 223.1796875 139.53686523 C242.62057164 179.44986123 247.78884998 226.79166377 240.08203125 270.31567383 C239.92105957 271.23590332 239.76008789 272.15613281 239.59423828 273.10424805 C231.37221928 318.41618177 210.12810608 359.09915425 179.203125 392.97192383 C177.26371622 395.11491695 175.38873826 397.29912021 173.51953125 399.50317383 C170.01675732 403.5097714 166.16489931 406.91328378 162.08203125 410.31567383 C161.05834943 411.17866535 160.03492963 412.04196774 159.01171875 412.90551758 C150.63630988 419.94615474 150.63630988 419.94615474 147.08203125 422.31567383 C146.62338963 425.29206385 146.62338963 425.29206385 146.69726562 428.8449707 C146.69189285 429.51504654 146.68652008 430.18512238 146.6809845 430.87550354 C146.67119314 432.33181369 146.66826646 433.78818227 146.67134094 435.24452209 C146.67580652 437.5474549 146.66185648 439.84961414 146.64294434 442.15246582 C146.60610707 447.04018909 146.59244033 451.92783213 146.58203125 456.81567383 C146.56997203 462.47837661 146.54853291 468.14070411 146.50202942 473.80323792 C146.48840835 476.07571941 146.49263903 478.3477326 146.49743652 480.62023926 C146.48809962 482.00895799 146.47793173 483.39767147 146.46679688 484.78637695 C146.46371521 486.60933289 146.46371521 486.60933289 146.46057129 488.46911621 C146.27319397 489.87816223 146.27319397 489.87816223 146.08203125 491.31567383 C142.80080958 493.50315494 141.88805476 493.87869506 138.08203125 493.31567383 C135.56640625 491.55004883 135.56640625 491.55004883 132.83203125 489.06567383 C127.4001816 484.28822251 121.69915139 480.10321923 115.72924805 476.0234375 C111.85637862 473.35375617 108.1584273 470.59786182 104.56640625 467.55786133 C103.45495239 466.63710815 103.45495239 466.63710815 102.32104492 465.69775391 C100.90483841 464.51379573 99.51005606 463.30356501 98.1418457 462.06445312 C94.36858483 458.94719132 94.36858483 458.94719132 89.65161133 458.54443359 C87.03962666 459.31157417 84.58968728 460.25865392 82.08203125 461.31567383 C80.69180907 461.79325044 79.29738278 462.2588192 77.8984375 462.71020508 C77.21233398 462.940625 76.52623047 463.17104492 75.81933594 463.40844727 C67.09796438 466.29468473 58.29526722 468.55840253 49.33203125 470.56567383 C48.2447876 470.81164307 47.15754395 471.0576123 46.03735352 471.31103516 C30.97504141 474.58899048 16.38233115 475.75543657 1.01953125 475.75317383 C0.10527374 475.75457367 -0.80898376 475.75597351 -1.75094604 475.75741577 C-24.4971224 475.72896109 -46.30458035 472.63559276 -67.91796875 465.31567383 C-69.75875 464.74913086 -69.75875 464.74913086 -71.63671875 464.17114258 C-101.18866269 454.88959716 -127.42825478 438.23521821 -150.91796875 418.31567383 C-151.76359375 417.60282227 -152.60921875 416.8899707 -153.48046875 416.15551758 C-167.21699696 404.15990354 -180.22574428 391.10880432 -190.91796875 376.31567383 C-191.39250488 375.67484863 -191.86704102 375.03402344 -192.35595703 374.3737793 C-216.29793479 342.03383597 -231.58031237 306.11924743 -237.91796875 266.31567383 C-238.11277832 265.11467041 -238.11277832 265.11467041 -238.31152344 263.8894043 C-243.24808447 231.81558547 -239.72384936 198.38177308 -230.91796875 167.31567383 C-230.58796875 166.98567383 -230.25796875 166.65567383 -229.91796875 166.31567383 C-204.50796875 166.31567383 -179.09796875 166.31567383 -152.91796875 166.31567383 C-152.91796875 231.32567383 -152.91796875 296.33567383 -152.91796875 363.31567383 C-135.75796875 363.31567383 -118.59796875 363.31567383 -100.91796875 363.31567383 C-100.91796875 338.56567383 -100.91796875 313.81567383 -100.91796875 288.31567383 C-90.35796875 288.31567383 -79.79796875 288.31567383 -68.91796875 288.31567383 C-66.93796875 291.61567383 -64.95796875 294.91567383 -62.91796875 298.31567383 C-60.99584228 301.32744717 -59.06284096 304.32718311 -57.10546875 307.31567383 C-56.55850342 308.15380615 -56.01153809 308.99193848 -55.44799805 309.85546875 C-54.25230066 311.68698799 -53.05573347 313.51793961 -51.85839844 315.34838867 C-49.78468034 318.51949709 -47.71444668 321.69286334 -45.64453125 324.86645508 C-38.12667259 336.38817067 -30.58413556 347.89191103 -22.91796875 359.31567383 C-21.92796875 360.80067383 -21.92796875 360.80067383 -20.91796875 362.31567383 C-18.21146974 362.75540003 -18.21146974 362.75540003 -14.99951172 362.65625 C-13.75837616 362.65602341 -12.5172406 362.65579681 -11.23849487 362.65556335 C-9.87904503 362.64024231 -8.51959884 362.6245943 -7.16015625 362.60864258 C-5.77296405 362.6030481 -4.38576592 362.5987773 -2.99856567 362.59577942 C0.65452406 362.5843188 4.30725659 362.55484169 7.96020508 362.52166748 C11.68696256 362.4909925 15.4137777 362.47727962 19.140625 362.4621582 C26.45459002 362.42997269 33.76826061 362.37876222 41.08203125 362.31567383 C39.68448604 359.96538616 38.28437186 357.61669129 36.8828125 355.26879883 C36.49387817 354.61411621 36.10494385 353.95943359 35.70422363 353.28491211 C33.01746319 348.78988845 30.20254211 344.40366448 27.26953125 340.06567383 C26.80812744 339.37989258 26.34672363 338.69411133 25.87133789 337.98754883 C25.49871826 337.43583008 25.12609863 336.88411133 24.7421875 336.31567383 C19.68287013 328.7616352 14.91344659 321.01640798 10.08203125 313.31567383 C8.00102968 310.00170143 5.91729745 306.6894641 3.83203125 303.37817383 C3.33630615 302.58830078 2.84058105 301.79842773 2.32983398 300.98461914 C-1.190083 295.39834461 -4.85849965 289.94614537 -8.6875 284.56567383 C-9.09355469 283.82317383 -9.49960937 283.08067383 -9.91796875 282.31567383 C-8.68593306 278.61956675 -7.82363764 278.47439264 -4.48046875 276.69067383 C14.52195355 265.72356153 26.32256311 247.03657727 32.08203125 226.31567383 C36.55319309 207.93661916 35.52396803 187.25843576 26.2890625 170.60864258 C25.08203125 168.31567383 25.08203125 168.31567383 25.08203125 166.31567383 C38.61203125 166.31567383 52.14203125 166.31567383 66.08203125 166.31567383 C66.10390503 172.34002686 66.10390503 172.34002686 66.1262207 178.48608398 C66.17666769 191.78938313 66.24313282 205.0925624 66.31774616 218.39574623 C66.36257481 226.45758373 66.40201871 234.51937834 66.4284668 242.58129883 C66.45155224 249.61394332 66.48506632 256.64645056 66.53073281 263.67898595 C66.554524 267.3973453 66.57334454 271.11556992 66.57964516 274.83400345 C66.58690195 279.00077654 66.61745783 283.16708511 66.6496582 287.33374023 C66.64750557 289.15176399 66.64750557 289.15176399 66.64530945 291.0065155 C66.76717113 302.23379377 68.56982901 313.29974469 73.26953125 323.56567383 C73.56633789 324.23042725 73.86314453 324.89518066 74.16894531 325.58007812 C77.27468316 332.2277439 81.47404158 337.91083673 86.81640625 342.95239258 C88.08203125 344.31567383 88.08203125 344.31567383 88.08203125 346.31567383 C88.64664062 346.57735352 89.21125 346.8390332 89.79296875 347.10864258 C92.28477251 348.42258006 94.43715959 349.96089025 96.70703125 351.62817383 C107.18891557 359.03804787 116.6195624 362.57104765 129.390625 362.72973633 C130.67749207 362.75620239 130.67749207 362.75620239 131.99035645 362.78320312 C135.16656444 362.84582585 138.34307401 362.89231825 141.51953125 362.94067383 C152.19296875 363.12629883 152.19296875 363.12629883 163.08203125 363.31567383 C163.08203125 344.83567383 163.08203125 326.35567383 163.08203125 307.31567383 C154.83203125 307.31567383 146.58203125 307.31567383 138.08203125 307.31567383 C123.58284872 300.06608256 123.58284872 300.06608256 120.44316101 291.33363342 C118.64927721 285.65912433 118.68299009 280.18524886 118.74145508 274.27832031 C118.741017 273.10657761 118.74057892 271.9348349 118.74012756 270.72758484 C118.74220637 266.88047228 118.76549528 263.03380338 118.7890625 259.18676758 C118.79466168 256.50919355 118.79907795 253.83164363 118.80192566 251.15406799 C118.81121781 244.84316681 118.8357928 238.53242315 118.86597413 232.22159106 C118.89960678 225.03169864 118.91602633 217.84179837 118.93106043 210.65184677 C118.96234525 195.87303115 119.0173215 181.09438433 119.08203125 166.31567383 C133.60203125 166.31567383 148.12203125 166.31567383 163.08203125 166.31567383 C163.05395298 159.71217607 163.01093259 153.11232195 162.92944336 146.50976562 C162.9062618 144.2643969 162.8918673 142.01891941 162.88647461 139.7734375 C162.87718655 136.54333709 162.83619702 133.31494774 162.7890625 130.08520508 C162.79496147 128.58181328 162.79496147 128.58181328 162.80097961 127.04804993 C162.70173734 122.29589416 162.65424851 120.05143123 159.6628418 116.20507812 C155.41102699 113.09233621 152.14150332 113.10958517 147.01171875 112.99926758 C145.81737717 112.96809593 145.81737717 112.96809593 144.59890747 112.93629456 C142.0517044 112.87083234 139.504397 112.81192968 136.95703125 112.75317383 C135.23175998 112.70998543 133.50649932 112.66637104 131.78125 112.62231445 C127.5482844 112.51515438 123.31521372 112.4138776 119.08203125 112.31567383 C119.07172379 111.6539064 119.06141632 110.99213898 119.05079651 110.31031799 C118.94297176 103.4489607 118.82835516 96.58774117 118.7097168 89.7265625 C118.66629059 87.16278962 118.6246214 84.59898636 118.5847168 82.03515625 C118.52719978 78.35903755 118.46345262 74.68307284 118.3984375 71.00708008 C118.37336876 69.27585655 118.37336876 69.27585655 118.34779358 67.50965881 C118.32784836 66.44863449 118.30790314 65.38761017 118.28735352 64.29443359 C118.27180923 63.3551149 118.25626495 62.4157962 118.24024963 61.44801331 C118.31657966 59.33260717 118.31657966 59.33260717 117.08203125 58.31567383 C115.51656077 58.22240667 113.94690353 58.19821801 112.37866211 58.20214844 C111.36364624 58.20226929 110.34863037 58.20239014 109.30285645 58.20251465 C107.69114563 58.2101886 107.69114563 58.2101886 106.046875 58.21801758 C105.06497192 58.21902466 104.08306885 58.22003174 103.07141113 58.22106934 C99.38743937 58.22631938 95.70348419 58.24028051 92.01953125 58.25317383 C79.67546875 58.28411133 79.67546875 58.28411133 67.08203125 58.31567383 C66.75203125 76.13567383 66.42203125 93.95567383 66.08203125 112.31567383 C-23.34796875 112.31567383 -112.77796875 112.31567383 -204.91796875 112.31567383 C-193.47036703 93.23633763 -178.95228736 75.58950337 -161.99414062 61.1003418 C-160.03815452 59.41898497 -158.11297103 57.7075545 -156.1875 55.99145508 C-143.33944358 44.75403611 -128.74923288 35.67568311 -113.91796875 27.31567383 C-113.25684082 26.94104004 -112.59571289 26.56640625 -111.91455078 26.18041992 C-94.35987705 16.40028666 -74.96705525 9.94887436 -55.48046875 5.31567383 C-54.32272949 5.03715576 -53.16499023 4.7586377 -51.97216797 4.47167969 C-34.81917172 0.63068606 -17.51864216 -0.0375638 0 0 Z " fill="#853BEB" transform="translate(512.91796875,272.684326171875)"/>
<path d="M0 0 C3.07978419 0.00317151 6.15861378 -0.02046324 9.23828125 -0.0456543 C34.01359264 -0.12437356 64.70115611 2.79698342 87.08203125 14.31567383 C88.92774202 15.02556258 90.78261814 15.71193825 92.64453125 16.37817383 C126.63571379 29.45170557 154.55958692 50.74967584 180.08203125 76.31567383 C180.75363281 76.94086914 181.42523437 77.56606445 182.1171875 78.21020508 C201.77129898 96.80397914 215.46086365 122.4400423 226.51953125 146.81567383 C226.83752686 147.50846436 227.15552246 148.20125488 227.4831543 148.91503906 C230.038938 154.70801126 231.36598237 160.0234946 233.08203125 166.31567383 C209.98203125 166.31567383 186.88203125 166.31567383 163.08203125 166.31567383 C162.89453125 143.12817383 162.89453125 143.12817383 162.87426758 135.83056641 C162.84781634 133.91541803 162.81953802 132.00029364 162.7890625 130.08520508 C162.79305054 129.09597046 162.79703857 128.10673584 162.80114746 127.08752441 C162.68294468 121.19131184 162.68294468 121.19131184 159.6628418 116.20507812 C155.41102699 113.09233621 152.14150332 113.10958517 147.01171875 112.99926758 C145.81737717 112.96809593 145.81737717 112.96809593 144.59890747 112.93629456 C142.0517044 112.87083234 139.504397 112.81192968 136.95703125 112.75317383 C135.23175998 112.70998543 133.50649932 112.66637104 131.78125 112.62231445 C127.5482844 112.51515438 123.31521372 112.4138776 119.08203125 112.31567383 C119.07172379 111.6539064 119.06141632 110.99213898 119.05079651 110.31031799 C118.94297176 103.4489607 118.82835516 96.58774117 118.7097168 89.7265625 C118.66629059 87.16278962 118.6246214 84.59898636 118.5847168 82.03515625 C118.52719978 78.35903755 118.46345262 74.68307284 118.3984375 71.00708008 C118.37336876 69.27585655 118.37336876 69.27585655 118.34779358 67.50965881 C118.32784836 66.44863449 118.30790314 65.38761017 118.28735352 64.29443359 C118.27180923 63.3551149 118.25626495 62.4157962 118.24024963 61.44801331 C118.31657966 59.33260717 118.31657966 59.33260717 117.08203125 58.31567383 C115.51656077 58.22240667 113.94690353 58.19821801 112.37866211 58.20214844 C111.36364624 58.20226929 110.34863037 58.20239014 109.30285645 58.20251465 C107.69114563 58.2101886 107.69114563 58.2101886 106.046875 58.21801758 C105.06497192 58.21902466 104.08306885 58.22003174 103.07141113 58.22106934 C99.38743937 58.22631938 95.70348419 58.24028051 92.01953125 58.25317383 C79.67546875 58.28411133 79.67546875 58.28411133 67.08203125 58.31567383 C66.75203125 76.13567383 66.42203125 93.95567383 66.08203125 112.31567383 C-23.34796875 112.31567383 -112.77796875 112.31567383 -204.91796875 112.31567383 C-193.47036703 93.23633763 -178.95228736 75.58950337 -161.99414062 61.1003418 C-160.03815452 59.41898497 -158.11297103 57.7075545 -156.1875 55.99145508 C-143.33944358 44.75403611 -128.74923288 35.67568311 -113.91796875 27.31567383 C-113.25684082 26.94104004 -112.59571289 26.56640625 -111.91455078 26.18041992 C-94.35987705 16.40028666 -74.96705525 9.94887436 -55.48046875 5.31567383 C-54.32272949 5.03715576 -53.16499023 4.7586377 -51.97216797 4.47167969 C-34.81917172 0.63068606 -17.51864216 -0.0375638 0 0 Z " fill="#2DC9D3" transform="translate(512.91796875,272.684326171875)"/>
<path d="M0 0 C37.62 0 75.24 0 114 0 C117.48523058 10.45569173 119.87435455 20.70720461 121.625 31.5625 C121.8096582 32.69437744 121.8096582 32.69437744 121.99804688 33.84912109 C126.2657555 61.37112604 124.32372112 88.87552392 118.625 116 C118.44042236 116.88276611 118.25584473 117.76553223 118.06567383 118.67504883 C116.83367645 124.19070057 115.2181624 129.50851392 113.40771484 134.85546875 C113.17590012 135.54523804 112.94408539 136.23500732 112.70524597 136.94567871 C112.13856368 138.63103618 111.56952408 140.31560072 111 142 C99.17718178 141.98509547 87.35478612 141.94336856 75.53219032 141.86790943 C70.04175029 141.8336979 64.5515868 141.80853849 59.06103516 141.80444336 C53.75692312 141.80014795 48.4534343 141.77158189 43.14951706 141.72656822 C41.1314902 141.71363295 39.1133886 141.70927138 37.09532547 141.71384621 C15.65723084 141.75110744 15.65723084 141.75110744 7.19790649 134.44319153 C0.00705367 126.99825895 -0.43811405 117.81725124 -0.34057617 107.96264648 C-0.34101425 106.79090378 -0.34145233 105.61916107 -0.34190369 104.41191101 C-0.33982488 100.56479846 -0.31653597 96.71812955 -0.29296875 92.87109375 C-0.28736957 90.19351972 -0.2829533 87.51596981 -0.28010559 84.83839417 C-0.27081344 78.52749298 -0.24623845 72.21674932 -0.21605712 65.90591723 C-0.17911985 58.0095741 -0.16278811 50.11320494 -0.14648438 42.21679688 C-0.11733879 28.14440882 -0.05723058 14.07236404 0 0 Z " fill="#2D1E76" transform="translate(632,439)"/>
<path d="M0 0 C25.41 0 50.82 0 77 0 C77.33 82.5 77.66 165 78 250 C74.02196537 248.01098268 71.87675162 246.14802178 68.74609375 243.046875 C68.24858109 242.5549617 67.75106842 242.0630484 67.23847961 241.55622864 C65.63124829 239.96090215 64.03333248 238.35672483 62.4375 236.75 C61.89299194 236.20366913 61.34848389 235.65733826 60.78747559 235.0944519 C53.41345942 227.67860914 46.27058447 220.26405796 40.21289062 211.70898438 C38.85975505 209.80239238 37.46960578 207.92564477 36.078125 206.046875 C12.8447623 174.32027123 -1.81344354 138.85459242 -8 100 C-8.12987305 99.19933105 -8.25974609 98.39866211 -8.39355469 97.57373047 C-13.33011572 65.49991165 -9.80588061 32.06609926 -1 1 C-0.67 0.67 -0.34 0.34 0 0 Z " fill="#2D1F77" transform="translate(283,439)"/>
<path d="M0 0 C100.32 0.33 200.64 0.66 304 1 C302.35 2.65 300.7 4.3 299 6 C298.26419175 9.26226721 298.26419175 9.26226721 298.38818359 12.86987305 C298.38251877 13.54038696 298.37685394 14.21090088 298.37101746 14.9017334 C298.35757275 17.1056401 298.37841157 19.3078854 298.3984375 21.51171875 C298.39293616 23.04678981 298.3848105 24.58185351 298.37417603 26.11689758 C298.35132021 30.14894431 298.35550238 34.18044814 298.36798096 38.21252441 C298.38631313 44.67660633 298.37642102 51.14037375 298.34212112 57.60437965 C298.33599995 59.86366724 298.34929383 62.12228089 298.36410522 64.3815155 C298.36115872 65.76044898 298.35750493 67.13938119 298.35302734 68.51831055 C298.35899429 70.32769356 298.35899429 70.32769356 298.36508179 72.17362976 C298.2446048 73.10633194 298.12412781 74.03903412 298 75 C294.71877833 77.18748111 293.80602351 77.56302123 290 77 C287.484375 75.234375 287.484375 75.234375 284.75 72.75 C279.31815035 67.97254868 273.61712014 63.7875454 267.6472168 59.70776367 C263.77434737 57.03808234 260.07639605 54.282188 256.484375 51.2421875 C255.74340576 50.62835205 255.00243652 50.0145166 254.23901367 49.38208008 C252.82280716 48.1981219 251.42802481 46.98789118 250.05981445 45.7487793 C246.28655358 42.63151749 246.28655358 42.63151749 241.56958008 42.22875977 C238.95759541 42.99590034 236.50765603 43.94298009 234 45 C232.60977782 45.47757661 231.21535153 45.94314537 229.81640625 46.39453125 C229.13030273 46.62495117 228.44419922 46.85537109 227.73730469 47.09277344 C219.01593313 49.9790109 210.21323597 52.2427287 201.25 54.25 C200.16275635 54.49596924 199.0755127 54.74193848 197.95532227 54.99536133 C182.89301016 58.27331665 168.3002999 59.43976274 152.9375 59.4375 C152.02324249 59.43889984 151.10898499 59.44029968 150.16702271 59.44174194 C127.42084635 59.41328726 105.6133884 56.31991893 84 49 C82.7728125 48.62230469 81.545625 48.24460937 80.28125 47.85546875 C51.59530017 38.84591098 22.99581976 22.64554968 1 2 C0.67 1.34 0.34 0.68 0 0 Z " fill="#2F1E77" transform="translate(361,689)"/>
<path d="M0 0 C1.2986201 0.00873852 1.2986201 0.00873852 2.62347496 0.01765358 C3.99811182 0.01509031 3.99811182 0.01509031 5.40051913 0.01247525 C8.48996094 0.00916507 11.57918845 0.02020912 14.66861045 0.03111184 C16.87577389 0.03167562 19.08293771 0.03136003 21.29010093 0.03022683 C27.29808794 0.02965103 33.30599572 0.04144194 39.31396425 0.05537474 C45.58670645 0.06784443 51.8594503 0.06904962 58.13220298 0.07142556 C68.66583693 0.07694326 79.19944479 0.08945098 89.73306358 0.10728371 C100.58397355 0.12563452 111.4348756 0.13979493 122.28579795 0.14829934 C123.2886403 0.14908751 123.2886403 0.14908751 124.31174208 0.1498916 C127.66563272 0.15250163 131.01952342 0.15502905 134.37341416 0.15751541 C162.20865434 0.17844246 190.04384428 0.21513246 217.87905967 0.25816262 C217.87905967 18.40816262 217.87905967 36.55816262 217.87905967 55.25816262 C128.44905967 55.25816262 39.01905967 55.25816262 -53.12094033 55.25816262 C-41.5486347 35.97098657 -26.88200141 18.30852391 -9.74984658 3.66831887 C-6.18677485 0.58374119 -4.8871247 0.02481439 0 0 Z " fill="#2596D8" transform="translate(361.12094032764435,329.7418373823166)"/>
<path d="M0 0 C13.53 0 27.06 0 41 0 C41.01458252 4.01623535 41.02916504 8.0324707 41.04418945 12.17041016 C41.09463644 25.47370931 41.16110157 38.77688857 41.23571491 52.0800724 C41.28054356 60.14190991 41.31998746 68.20370451 41.34643555 76.265625 C41.36952099 83.29826949 41.40303507 90.33077673 41.44870156 97.36331213 C41.47249275 101.08167147 41.49131329 104.79989609 41.49761391 108.51832962 C41.5048707 112.68510271 41.53542658 116.85141128 41.56762695 121.01806641 C41.56619186 122.23008224 41.56475677 123.44209808 41.5632782 124.69084167 C41.68513988 135.91811994 43.48779776 146.98407087 48.1875 157.25 C48.48430664 157.91475342 48.78111328 158.57950684 49.08691406 159.2644043 C52.19265191 165.91207007 56.39201033 171.59516291 61.734375 176.63671875 C63 178 63 178 63 180 C63.56460938 180.26167969 64.12921875 180.52335938 64.7109375 180.79296875 C67.20274126 182.10690623 69.35512834 183.64521642 71.625 185.3125 C78.01131283 189.84046183 84.72395852 193.15397315 92 196 C92 196.33 92 196.66 92 197 C82.42995074 197.44227195 72.86346231 197.77876221 63.28538895 197.98443127 C58.83614154 198.08321008 54.39392658 198.21680378 49.94873047 198.43334961 C21.24730665 199.7957677 21.24730665 199.7957677 14.24966431 195.18960571 C10.09597788 190.83865561 7.84009615 185.97546982 5.89627075 180.34106445 C4.51657384 176.73728803 2.44342855 173.93495834 0.1875 170.8125 C-4.80818595 163.39861245 -9.51879242 155.81426277 -14.23242188 148.21875 C-19.02550771 140.51088404 -23.93459204 132.88710142 -28.96411133 125.33129883 C-31.38980424 121.6521564 -33.60490069 118.21911852 -35 114 C-34.32195312 113.59910156 -33.64390625 113.19820312 -32.9453125 112.78515625 C-11.50970931 99.69221857 1.91038572 80.921251 7.8125 56.66015625 C11.02862497 38.9491347 10.02993389 20.19995381 1.20703125 4.29296875 C0 2 0 2 0 0 Z " fill="#2D1E76" transform="translate(538,439)"/>
<path d="M0 0 C37.62 0 75.24 0 114 0 C117.48523058 10.45569173 119.87435455 20.70720461 121.625 31.5625 C121.8096582 32.69437744 121.8096582 32.69437744 121.99804688 33.84912109 C123.74999641 45.14725971 124.13999495 56.32843587 124.0625 67.75 C124.05798828 69.03132813 124.05347656 70.31265625 124.04882812 71.6328125 C124.0371772 74.75525931 124.02082025 77.87760318 124 81 C123.67 81 123.34 81 123 81 C123 76.38 123 71.76 123 67 C82.74 67 42.48 67 1 67 C1 84.49 1 101.98 1 120 C0.67 120 0.34 120 0 120 C0 80.4 0 40.8 0 0 Z " fill="#2551BD" transform="translate(632,439)"/>
<path d="M0 0 C1.15181007 0.00280975 1.15181007 0.00280975 2.32688904 0.00567627 C3.94835764 0.0123932 5.56981013 0.02630069 7.19116211 0.046875 C9.67772418 0.07805141 12.1636524 0.08784852 14.65039062 0.09375 C16.22526817 0.10291936 17.80013926 0.11329492 19.375 0.125 C20.49377281 0.13137482 20.49377281 0.13137482 21.63514709 0.13787842 C26.8866555 0.21090587 26.8866555 0.21090587 29.12109375 1.328125 C29.12109375 2.318125 29.12109375 3.308125 29.12109375 4.328125 C30.01699219 4.24175781 30.91289063 4.15539062 31.8359375 4.06640625 C35.96915954 4.39568791 36.93176513 5.49796678 39.68359375 8.515625 C40.84568359 9.75892578 40.84568359 9.75892578 42.03125 11.02734375 C42.72089844 11.78660156 43.41054688 12.54585938 44.12109375 13.328125 C44.94609375 14.153125 45.77109375 14.978125 46.62109375 15.828125 C47.44609375 16.653125 48.27109375 17.478125 49.12109375 18.328125 C49.74113281 18.90175781 50.36117187 19.47539062 51 20.06640625 C70.70012602 38.77976389 84.44732596 64.33655158 95.55859375 88.828125 C95.87658936 89.52091553 96.19458496 90.21370605 96.5222168 90.92749023 C99.0780005 96.72046243 100.40504487 102.03594577 102.12109375 108.328125 C79.02109375 108.328125 55.92109375 108.328125 32.12109375 108.328125 C31.93359375 85.140625 31.93359375 85.140625 31.91333008 77.84301758 C31.88687884 75.9278692 31.85860052 74.01274481 31.828125 72.09765625 C31.83211304 71.10842163 31.83610107 70.11918701 31.84020996 69.09997559 C31.72200718 63.20376301 31.72200718 63.20376301 28.7019043 58.2175293 C24.50566346 55.14547293 21.33225852 55.1237475 16.26953125 55.01171875 C15.10848373 54.9805471 15.10848373 54.9805471 13.92398071 54.94874573 C11.44810983 54.88329052 8.97213173 54.82438413 6.49609375 54.765625 C4.81899927 54.72243593 3.14191568 54.67882152 1.46484375 54.63476562 C-2.64962933 54.52761329 -6.76421039 54.42633455 -10.87890625 54.328125 C-10.95485438 47.11994155 -11.00746303 39.91186095 -11.04370117 32.70336914 C-11.05880506 30.25020492 -11.07928946 27.79706776 -11.10522461 25.34399414 C-11.14153682 21.82170945 -11.15861661 18.29978119 -11.171875 14.77734375 C-11.18735886 13.67726486 -11.20284271 12.57718597 -11.21879578 11.44377136 C-11.21902237 10.42293961 -11.21924896 9.40210785 -11.21948242 8.3503418 C-11.22614426 7.45099411 -11.23280609 6.55164642 -11.2396698 5.62504578 C-10.87890625 3.328125 -10.87890625 3.328125 -9.57772827 1.53651428 C-6.70411729 -0.50751427 -3.39452593 -0.05634602 0 0 Z " fill="#2896DB" transform="translate(643.87890625,330.671875)"/>
<path d="M0 0 C12.9628125 -0.1546875 12.9628125 -0.1546875 26.1875 -0.3125 C28.88832764 -0.35802002 31.58915527 -0.40354004 34.37182617 -0.45043945 C60.92032631 -0.71350426 60.92032631 -0.71350426 71.5 8.75 C79.7662812 17.96000041 81.73371243 27.00854522 81.17919922 39.03955078 C80.49541104 46.52023074 76.28160466 53.77434455 71 59 C64.52462448 63.70284393 59.32184878 66.13124303 51.31347656 66.11352539 C49.57831787 66.11334412 49.57831787 66.11334412 47.80810547 66.11315918 C46.59783691 66.10804321 45.38756836 66.10292725 44.140625 66.09765625 C43.02413574 66.09664917 41.90764648 66.09564209 40.75732422 66.09460449 C36.58820569 66.08937401 32.41910181 66.07541274 28.25 66.0625 C18.9275 66.041875 9.605 66.02125 0 66 C0 44.22 0 22.44 0 0 Z " fill="#2F1F77" transform="translate(413,439)"/>
<path d="M0 0 C10.23 0 20.46 0 31 0 C32.98 3.3 34.96 6.6 37 10 C38.92212647 13.01177334 40.85512779 16.01150928 42.8125 19 C43.35946533 19.83813232 43.90643066 20.67626465 44.4699707 21.53979492 C45.66566809 23.37131416 46.86223528 25.20226578 48.05957031 27.03271484 C50.13328841 30.20382326 52.20352207 33.37718951 54.2734375 36.55078125 C64.11359718 51.65388537 64.11359718 51.65388537 74.13354492 66.63793945 C75.98213614 69.38056599 77.51259983 72.02519965 79 75 C52.93 75 26.86 75 0 75 C0 50.25 0 25.5 0 0 Z " fill="#2B1E70" transform="translate(413,561)"/>
<path d="M0 0 C-1.8125 0.6875 -1.8125 0.6875 -4 1 C-4.474375 0.505 -4.94875 0.01 -5.4375 -0.5 C-5.953125 -0.995 -6.46875 -1.49 -7 -2 C-9.30967231 -1.70201783 -9.30967231 -1.70201783 -12 -1 C-13.0415625 -0.77441406 -14.083125 -0.54882812 -15.15625 -0.31640625 C-16.2596875 -0.06761719 -17.363125 0.18117188 -18.5 0.4375 C-19.6034375 0.68371094 -20.706875 0.92992187 -21.84375 1.18359375 C-24.70520326 1.92374688 -27.2764483 2.86888325 -30 4 C-31.61856939 4.52044032 -33.24381934 5.02054754 -34.875 5.5 C-35.74769531 5.75652344 -36.62039063 6.01304687 -37.51953125 6.27734375 C-38.33808594 6.51582031 -39.15664063 6.75429688 -40 7 C-41.175625 7.350625 -42.35125 7.70125 -43.5625 8.0625 C-47.01847304 9.0050381 -50.48078857 9.79401297 -53.984375 10.53515625 C-56.18650242 11.00941748 -56.18650242 11.00941748 -59 12 C-60.35418817 12.01938511 -61.70935145 11.99398351 -63.0625 11.9375 C-66.26597155 11.88826189 -68.95199373 12.16822209 -72.0390625 12.98828125 C-79.78148267 14.60435841 -87.68489135 14.29723109 -95.55737305 14.26074219 C-98.29563761 14.25006575 -101.03324032 14.2606569 -103.77148438 14.2734375 C-112.46248197 14.27945179 -120.80488978 14.06595207 -129.36474609 12.44091797 C-133.28266196 11.78539119 -137.03739877 11.86567453 -141 12 C-141 11.34 -141 10.68 -141 10 C-142.65 10.33 -144.3 10.66 -146 11 C-146 10.34 -146 9.68 -146 9 C-147.423125 8.814375 -147.423125 8.814375 -148.875 8.625 C-161.33572528 6.79842782 -172.37228605 2.74188769 -184 -2 C-183.67 -2.66 -183.34 -3.32 -183 -4 C-182.05084717 -3.66790527 -182.05084717 -3.66790527 -181.08251953 -3.32910156 C-154.48033697 5.91839254 -128.5778667 11.63938157 -100.3125 11.4375 C-99.40034729 11.43445862 -98.48819458 11.43141724 -97.54840088 11.42828369 C-82.71493614 11.35547704 -68.49843738 10.31457278 -54 7 C-52.9992041 6.78037598 -51.9984082 6.56075195 -50.96728516 6.33447266 C-39.09213436 3.69492758 -27.56489641 0.48324359 -16.2409668 -3.99145508 C-15.4756665 -4.2830249 -14.71036621 -4.57459473 -13.921875 -4.875 C-12.92559082 -5.27332031 -12.92559082 -5.27332031 -11.90917969 -5.6796875 C-7.5001014 -6.41942033 -3.45146001 -2.35326819 0 0 Z " fill="#D2D1EA" transform="translate(613,736)"/>
<path d="M0 0 C0.33 0 0.66 0 1 0 C1 17.82 1 35.64 1 54 C-88.43 54 -177.86 54 -270 54 C-268.35 51.36 -266.7 48.72 -265 46 C-264.67 46.66 -264.34 47.32 -264 48 C-264.66 49.32 -265.32 50.64 -266 52 C-178.22 52.33 -90.44 52.66 0 53 C0 35.51 0 18.02 0 0 Z " fill="#3991C2" transform="translate(578,331)"/>
<path d="M0 0 C0.99 0.66 1.98 1.32 3 2 C-1.72440209 8.87678012 -6.71488708 15.10996155 -12.4934082 21.11425781 C-15.19056807 23.61763229 -15.19056807 23.61763229 -16 27 C-17.62198278 28.71018344 -19.29801542 30.36941604 -21 32 C-22.72140672 33.75387981 -24.44139981 35.50914791 -26.16015625 37.265625 C-27.62457167 38.75212693 -29.09040829 40.2372111 -30.55688477 41.72167969 C-31.5650938 42.74509279 -32.57061081 43.77116455 -33.57348633 44.79980469 C-35.03283932 46.29552859 -36.50165794 47.78136368 -37.97265625 49.265625 C-38.84156494 50.15024414 -39.71047363 51.03486328 -40.60571289 51.94628906 C-43 54 -43 54 -44.93920898 54.48339844 C-48.43610352 55.36000415 -50.91608827 57.12809467 -53 60 C-53.81881135 63.38259981 -53.70044082 66.6500493 -53.5859375 70.11328125 C-53.57744781 71.08283249 -53.56895813 72.05238373 -53.56021118 73.05131531 C-53.52669869 76.13952065 -53.45142228 79.22508778 -53.375 82.3125 C-53.34489767 84.40946742 -53.31752233 86.50647589 -53.29296875 88.60351562 C-53.22691407 93.73668925 -53.12340587 98.8678978 -53 104 C-53.33 104 -53.66 104 -54 104 C-57.20086421 90.48107592 -59.50965103 67.73274599 -53.58642578 54.94921875 C-50.16185119 50.70865038 -45.90774593 48.27487945 -41.01318359 46.00634766 C-38.05029222 44.52526128 -35.82985902 42.45375018 -33.4375 40.1875 C-32.6640625 39.47851562 -31.890625 38.76953125 -31.09375 38.0390625 C-28.49085637 35.5041549 -26.09966956 32.84969458 -23.76171875 30.0703125 C-21.82381517 27.79295353 -19.78909853 25.62456851 -17.75 23.4375 C-11.17807395 16.17557827 -5.42897794 8.14346691 0 0 Z " fill="#E5DCF3" transform="translate(714,637)"/>
<path d="M0 0 C21.78 0 43.56 0 66 0 C66 0.33 66 0.66 66 1 C65.35742249 1.01030746 64.71484497 1.02061493 64.05279541 1.03123474 C57.36940441 1.13935168 50.68614681 1.25394565 44.00292969 1.37231445 C41.50816639 1.4156466 39.01337377 1.45732291 36.51855469 1.49731445 C32.93415484 1.55505836 29.3499024 1.61874135 25.765625 1.68359375 C24.64883362 1.70030624 23.53204224 1.71701874 22.38140869 1.73423767 C21.34063171 1.75418289 20.29985474 1.77412811 19.22753906 1.79467773 C18.31264709 1.81022202 17.39775513 1.8257663 16.45513916 1.84178162 C14.16358956 1.98945767 12.20348496 2.3829576 10 3 C9.13375 3.144375 8.2675 3.28875 7.375 3.4375 C4.82892516 3.82100329 4.82892516 3.82100329 3 6 C2.64312944 8.77859939 2.64312944 8.77859939 2.62109375 12.0546875 C2.57069946 13.92423096 2.57069946 13.92423096 2.51928711 15.83154297 C2.49198729 17.17936122 2.46472563 18.52718025 2.4375 19.875 C2.38561322 21.92090014 2.33017899 23.96668355 2.27442932 26.01248169 C2.23727296 27.3805158 2.20117274 28.74857901 2.16612244 30.1166687 C2.01144255 36.04131464 1.75168026 41.95692616 1.4375 47.875 C1.37163696 49.12966064 1.37163696 49.12966064 1.30444336 50.40966797 C1.20523221 52.27323421 1.10303278 54.13664114 1 56 C0.67 56 0.34 56 0 56 C0 37.52 0 19.04 0 0 Z " fill="#723CC8" transform="translate(676,580)"/>
<path d="M0 0 C0 0.33 0 0.66 0 1 C-2.31 1 -4.62 1 -7 1 C-7.33 1.66 -7.66 2.32 -8 3 C-31.1 3 -54.2 3 -78 3 C-78.33 2.01 -78.66 1.02 -79 0 C-69.43804164 -0.15396316 -59.87601618 -0.30214332 -50.31385517 -0.4429636 C-45.87365631 -0.5085349 -41.43350617 -0.57608964 -36.9934082 -0.64819336 C-32.70761824 -0.71771799 -28.42177866 -0.78201143 -24.13585472 -0.84269524 C-22.50159041 -0.86675076 -20.86735262 -0.89268367 -19.23314857 -0.92053413 C-16.94233974 -0.95925231 -14.65152713 -0.9912643 -12.3605957 -1.02172852 C-11.05709671 -1.04171402 -9.75359772 -1.06169952 -8.41059875 -1.08229065 C-5.44923405 -1.01083908 -2.86778237 -0.70099154 0 0 Z " fill="#6D32CE" transform="translate(635,636)"/>
<path d="M0 0 C16.17959345 -0.0641107 32.35863987 -0.0711583 48.53826904 -0.01245117 C50.78358606 -0.0043752 53.02890706 0.00268519 55.27423096 0.00854492 C61.13100865 0.02535027 66.98637554 0.06723958 72.84255981 0.15359497 C74.60848232 0.17612555 76.37453593 0.19007731 78.14059448 0.19528198 C80.58429999 0.20438499 83.02555354 0.24447097 85.46875 0.29296875 C86.1799147 0.28904114 86.89107941 0.28511353 87.62379456 0.28106689 C91.44457216 0.3956911 92.75777693 0.75057246 95.47070312 3.54418945 C96.22770508 4.75981567 96.22770508 4.75981567 97 6 C95.68 6 94.36 6 93 6 C93 5.01 93 4.02 93 3 C80.13 3 67.26 3 54 3 C53.67 20.49 53.34 37.98 53 56 C52.67 56 52.34 56 52 56 C51.98969254 55.33823257 51.97938507 54.67646515 51.96876526 53.99464417 C51.86094051 47.13328687 51.74632391 40.27206734 51.62768555 33.41088867 C51.58425934 30.84711579 51.54259015 28.28331254 51.50268555 25.71948242 C51.44516853 22.04336372 51.38142137 18.36739901 51.31640625 14.69140625 C51.29969376 13.53725723 51.28298126 12.38310822 51.26576233 11.19398499 C51.2358445 9.6024485 51.2358445 9.6024485 51.20532227 7.97875977 C51.18200584 6.56978172 51.18200584 6.56978172 51.15821838 5.13233948 C51.23454841 3.01693335 51.23454841 3.01693335 50 2 C48.43551617 1.87736612 46.86567228 1.82220478 45.29663086 1.79467773 C43.79518776 1.7647599 43.79518776 1.7647599 42.26341248 1.73423767 C40.63062096 1.70916893 40.63062096 1.70916893 38.96484375 1.68359375 C37.85645645 1.66281265 36.74806915 1.64203156 35.60609436 1.62062073 C32.04996192 1.55500377 28.49375297 1.49618404 24.9375 1.4375 C22.53319507 1.39432632 20.12889801 1.35071242 17.72460938 1.30664062 C11.81648815 1.19931008 5.90829009 1.09756669 0 1 C0 0.67 0 0.34 0 0 Z " fill="#4CB7D4" transform="translate(580,329)"/>
<path d="M0 0 C1.37017776 0.00303635 1.37017776 0.00303635 2.76803589 0.00613403 C3.70444916 0.00517731 4.64086243 0.00422058 5.60565186 0.00323486 C7.59467638 0.00255256 9.58370311 0.00441029 11.57272339 0.00857544 C14.60142109 0.01388725 17.62996805 0.00865079 20.65866089 0.00222778 C22.59095288 0.00288926 24.52324478 0.00417186 26.45553589 0.00613403 C27.80749557 0.00309769 27.80749557 0.00309769 29.18676758 0 C34.06820698 0.01795174 38.69708506 0.31479583 43.51022339 1.13894653 C43.51022339 1.46894653 43.51022339 1.79894653 43.51022339 2.13894653 C42.22148315 2.15876587 40.93274292 2.17858521 39.60494995 2.19900513 C34.72164684 2.27635654 29.83859298 2.36484701 24.95553589 2.45632935 C22.8611857 2.49409422 20.7667821 2.52902724 18.67233276 2.56082153 C0.65706178 2.83744758 -17.2189397 3.447617 -34.80227661 7.70144653 C-36.69368586 8.14247534 -38.58560238 8.58133518 -40.47805786 9.01785278 C-41.33609009 9.21652954 -42.19412231 9.4152063 -43.07815552 9.61990356 C-46.20477836 10.29283332 -49.31635219 10.74938133 -52.48977661 11.13894653 C-50.43340049 8.3567906 -49.39185165 8.12206292 -45.86477661 7.51394653 C-44.75102661 7.39019653 -43.63727661 7.26644653 -42.48977661 7.13894653 C-42.15977661 6.80894653 -41.82977661 6.47894653 -41.48977661 6.13894653 C-39.17855373 5.60605588 -36.88290974 5.13358419 -34.55227661 4.70144653 C-33.85094604 4.56947876 -33.14961548 4.43751099 -32.42703247 4.30154419 C-26.03911714 3.14726258 -19.62764229 2.40408341 -13.16775513 1.78567505 C-8.38491223 1.3149624 -4.87984302 0.01835078 0 0 Z " fill="#CCFAFB" transform="translate(494.4897766113281,270.8610534667969)"/>
<path d="M0 0 C-1.8125 0.6875 -1.8125 0.6875 -4 1 C-4.474375 0.505 -4.94875 0.01 -5.4375 -0.5 C-5.953125 -0.995 -6.46875 -1.49 -7 -2 C-9.30967231 -1.70201783 -9.30967231 -1.70201783 -12 -1 C-13.0415625 -0.77441406 -14.083125 -0.54882812 -15.15625 -0.31640625 C-16.2596875 -0.06761719 -17.363125 0.18117188 -18.5 0.4375 C-19.6034375 0.68371094 -20.706875 0.92992187 -21.84375 1.18359375 C-24.70520326 1.92374688 -27.2764483 2.86888325 -30 4 C-31.61856939 4.52044032 -33.24381934 5.02054754 -34.875 5.5 C-35.74769531 5.75652344 -36.62039063 6.01304687 -37.51953125 6.27734375 C-38.33808594 6.51582031 -39.15664063 6.75429688 -40 7 C-41.175625 7.350625 -42.35125 7.70125 -43.5625 8.0625 C-47.01847304 9.0050381 -50.48078857 9.79401297 -53.984375 10.53515625 C-56.18650242 11.00941748 -56.18650242 11.00941748 -59 12 C-61.39870613 11.91343435 -63.79537281 11.76001509 -66.1875 11.5625 C-67.45980469 11.46066406 -68.73210938 11.35882812 -70.04296875 11.25390625 C-71.01878906 11.17011719 -71.99460937 11.08632813 -73 11 C-73 10.67 -73 10.34 -73 10 C-71.3603125 9.77957031 -71.3603125 9.77957031 -69.6875 9.5546875 C-51.3941215 6.95828576 -33.45228696 2.81163325 -16.24243164 -3.99121094 C-15.47664795 -4.28286133 -14.71086426 -4.57451172 -13.921875 -4.875 C-13.25768555 -5.14054688 -12.59349609 -5.40609375 -11.90917969 -5.6796875 C-7.5001014 -6.41942033 -3.45146001 -2.35326819 0 0 Z " fill="#C5C3E1" transform="translate(613,736)"/>
<path d="M0 0 C1.32 0.33 2.64 0.66 4 1 C4 1.99 4 2.98 4 4 C4.71360184 3.83635956 5.42720367 3.67271912 6.16242981 3.50411987 C8.99147702 3.00151418 11.53152319 2.8990993 14.40112305 2.93408203 C15.45538986 2.94384064 16.50965668 2.95359924 17.59587097 2.96365356 C19.28671562 2.98551224 19.28671562 2.98551224 21.01171875 3.0078125 C23.40168854 3.02531795 25.79166276 3.04222726 28.18164062 3.05859375 C31.94779634 3.08965584 35.71373249 3.12532088 39.47973633 3.17138672 C43.11542588 3.21353278 46.75085269 3.23710429 50.38671875 3.2578125 C51.52002121 3.27643341 52.65332367 3.29505432 53.82096863 3.3142395 C54.86577896 3.31769379 55.91058929 3.32114807 56.98706055 3.32470703 C57.90907761 3.33438507 58.83109467 3.34406311 59.78105164 3.35403442 C60.87943108 3.17878738 60.87943108 3.17878738 62 3 C62.66 2.01 63.32 1.02 64 0 C64.99 2.475 64.99 2.475 66 5 C57.83772403 5.11580043 49.67579062 5.20466639 41.51289654 5.25906086 C37.72257687 5.28516647 33.93281872 5.32057991 30.14282227 5.37719727 C26.48585805 5.43148603 22.8294342 5.46141327 19.17209816 5.47438622 C17.77615664 5.48363205 16.38024504 5.5016876 14.98453331 5.52865028 C13.03124153 5.56488701 11.07740708 5.5670419 9.1237793 5.56762695 C8.0112529 5.57873001 6.8987265 5.58983307 5.75248718 5.60127258 C3 5 3 5 1.11726379 2.46452332 C0.74856674 1.65123062 0.37986969 0.83793793 0 0 Z " fill="#F2EAFA" transform="translate(489,631)"/>
<path d="M0 0 C0.33 0.99 0.66 1.98 1 3 C-2.49205938 6.59476701 -6.04033675 9.92026191 -10 13 C-10.66 13 -11.32 13 -12 13 C-12.08636719 13.57363281 -12.17273438 14.14726562 -12.26171875 14.73828125 C-13.20769371 17.63626802 -14.65270234 19.05174461 -16.8125 21.1875 C-17.84310547 22.22970703 -17.84310547 22.22970703 -18.89453125 23.29296875 C-21.01297069 25.01051613 -22.33735732 25.59910773 -25 26 C-18.20715388 15.99703251 -9.22053705 7.74102394 0 0 Z " fill="#3A9BCC" transform="translate(353,332)"/>
<path d="M0 0 C0.33 0 0.66 0 1 0 C0.18594232 11.39680752 -6.01226946 19.73122926 -12.57421875 28.79296875 C-14.18087824 30.8420703 -14.18087824 30.8420703 -14 33 C-15.98 33.495 -15.98 33.495 -18 34 C-16.56498237 30.03558261 -14.65581885 26.72685833 -12.375 23.1875 C-7.6660587 15.74811811 -3.82335731 7.92126422 0 0 Z " fill="#EFDDFA" transform="translate(733,603)"/>
<path d="M0 0 C3.21352901 3.76585431 5.02232674 8.0747742 7 12.5625 C7.53173828 13.76108643 7.53173828 13.76108643 8.07421875 14.98388672 C10.62754374 20.86056825 12.67161371 26.71783986 14 33 C12.68 33 11.36 33 10 33 C10.061875 32.319375 10.12375 31.63875 10.1875 30.9375 C9.99778606 27.96531494 9.24172371 25.9197651 7.9921875 23.2421875 C6.17925081 19.14523607 4.72149349 14.90177971 3.18359375 10.6953125 C2.28898362 7.87818634 2.28898362 7.87818634 0 7 C0 4.69 0 2.38 0 0 Z " fill="#4795CF" transform="translate(732,406)"/>
<path d="M0 0 C7.86647065 4.73205488 15.17214126 9.84568245 22 16 C22 16.33 22 16.66 22 17 C19.6875 17.3125 19.6875 17.3125 17 17 C16.566875 16.24460937 16.13375 15.48921875 15.6875 14.7109375 C13.64928973 11.43659044 11.62524719 10.23952288 8.3125 8.3125 C6.51117639 7.25880746 4.73048408 6.1663874 3 5 C3 4.34 3 3.68 3 3 C2.01 2.67 1.02 2.34 0 2 C0 1.34 0 0.68 0 0 Z " fill="#4EBEC3" transform="translate(650,313)"/>
<path d="M0 0 C0.33 0.99 0.66 1.98 1 3 C-2.49359465 6.59634744 -6.11098131 9.83451967 -10 13 C-10.33 12.01 -10.66 11.02 -11 10 C-5.555 5.05 -5.555 5.05 0 0 Z " fill="#3B9AC6" transform="translate(353,332)"/>
<path d="M0 0 C0.33 0 0.66 0 1 0 C1.05834353 3.22909006 1.09371115 6.45804338 1.125 9.6875 C1.14175781 10.59951172 1.15851562 11.51152344 1.17578125 12.45117188 C1.20936169 17.06848227 1.23556185 20.81932331 -1 25 C-1.99 24.34 -2.98 23.68 -4 23 C-3.34 22.67 -2.68 22.34 -2 22 C-1.53044799 19.77187153 -1.53044799 19.77187153 -1.3671875 17.08984375 C-1.28339844 16.10048828 -1.19960938 15.11113281 -1.11328125 14.09179688 C-1.03464844 13.05087891 -0.95601562 12.00996094 -0.875 10.9375 C-0.74544922 9.37032227 -0.74544922 9.37032227 -0.61328125 7.77148438 C-0.40041023 5.18155359 -0.19638621 2.5912245 0 0 Z " fill="#F0ECF5" transform="translate(660,742)"/>
<path d="M0 0 C2.75164432 -0.13517903 5.49664521 -0.23415251 8.25 -0.3125 C9.02730469 -0.35439453 9.80460938 -0.39628906 10.60546875 -0.43945312 C12.84351137 -0.48727455 14.80959674 -0.46976923 17 0 C19.546875 2.51953125 19.546875 2.51953125 21 5 C19.68 5 18.36 5 17 5 C17 4.01 17 3.02 17 2 C15.94039062 2.02320313 14.88078125 2.04640625 13.7890625 2.0703125 C12.4010487 2.08906944 11.0130273 2.10726972 9.625 2.125 C8.57699219 2.15013672 8.57699219 2.15013672 7.5078125 2.17578125 C5.67102514 2.19344267 3.83398037 2.10303261 2 2 C1.34 1.34 0.68 0.68 0 0 Z " fill="#299ECA" transform="translate(656,330)"/>
<path d="M0 0 C5.94 0 11.88 0 18 0 C18 0.66 18 1.32 18 2 C18.66 2.33 19.32 2.66 20 3 C13.4 2.34 6.8 1.68 0 1 C0 0.67 0 0.34 0 0 Z " fill="#D6FCFD" transform="translate(540,273)"/>
<path d="M0 0 C6.435 2.97 6.435 2.97 13 6 C13 6.66 13 7.32 13 8 C8.14036821 7.39254603 4.2594482 5.27241033 0 3 C0 2.01 0 1.02 0 0 Z " fill="#D4D3E9" transform="translate(408,722)"/>
<path d="M0 0 C2 3 2 3 1.8125 4.875 C0.82544914 7.45651762 -0.51452332 9.67490606 -2 12 C-2.66 11.67 -3.32 11.34 -4 11 C-2.68 7.37 -1.36 3.74 0 0 Z " fill="#EDE3F9" transform="translate(742,582)"/>
<path d="M0 0 C3.91939465 3.80411834 7.49102731 7.81576108 11 12 C8 12 8 12 6.24609375 10.28515625 C5.35083984 9.18494141 5.35083984 9.18494141 4.4375 8.0625 C2.08714476 5.07351045 2.08714476 5.07351045 -1 3 C-0.67 2.01 -0.34 1.02 0 0 Z " fill="#4C9DCC" transform="translate(689,345)"/>
<path d="M0 0 C4.28477792 2.30718811 7.72291137 4.32966073 11 8 C10.01 8.33 9.02 8.66 8 9 C7.34 7.68 6.68 6.36 6 5 C4.68 5 3.36 5 2 5 C1.34 3.35 0.68 1.7 0 0 Z " fill="#D4D1E8" transform="translate(632,751)"/>
<path d="M0 0 C1 3 1 3 0.00390625 5.48046875 C-0.47175781 6.37378906 -0.94742188 7.26710938 -1.4375 8.1875 C-1.91058594 9.08855469 -2.38367188 9.98960937 -2.87109375 10.91796875 C-3.24363281 11.60503906 -3.61617187 12.29210937 -4 13 C-4.33 13 -4.66 13 -5 13 C-5 11.02 -5 9.04 -5 7 C-4.34 7 -3.68 7 -3 7 C-3 6.01 -3 5.02 -3 4 C-2.34 4 -1.68 4 -1 4 C-0.67 2.68 -0.34 1.36 0 0 Z " fill="#7A46CF" transform="translate(738,590)"/>
<path d="M0 0 C1.17539996 0.92652701 2.34010577 1.86663387 3.5 2.8125 C4.1496875 3.33457031 4.799375 3.85664062 5.46875 4.39453125 C7 6 7 6 7 9 C5.1875 8.875 5.1875 8.875 3 8 C0 2.96428571 0 2.96428571 0 0 Z " fill="#E4E2F4" transform="translate(335,665)"/>
<path d="M0 0 C0 0.99 0 1.98 0 3 C-1.64453125 4.640625 -1.64453125 4.640625 -3.8125 6.25 C-4.52019531 6.79140625 -5.22789062 7.3328125 -5.95703125 7.890625 C-6.96830078 8.43976563 -6.96830078 8.43976563 -8 9 C-8.99 8.67 -9.98 8.34 -11 8 C-7.37 5.36 -3.74 2.72 0 0 Z " fill="#58C2CA" transform="translate(367,321)"/>
<path d="M0 0 C1.29608947 0.93137592 2.58671632 1.8703566 3.875 2.8125 C4.59429687 3.33457031 5.31359375 3.85664062 6.0546875 4.39453125 C8 6 8 6 10 9 C5.57238086 7.60846256 3.0443745 5.47928514 0 2 C0 1.34 0 0.68 0 0 Z " fill="#E2DFF4" transform="translate(354,684)"/>
<path d="M0 0 C3.4375 0.8125 3.4375 0.8125 7 2 C7.33 2.99 7.66 3.98 8 5 C10.00016466 6.20882096 10.00016466 6.20882096 12 7 C8.38862487 7 7.25267809 6.07469918 4.3125 4.0625 C3.50425781 3.51722656 2.69601562 2.97195313 1.86328125 2.41015625 C1.24839844 1.94480469 0.63351562 1.47945313 0 1 C0 0.67 0 0.34 0 0 Z " fill="#D3F9FA" transform="translate(645,309)"/>
<path d="M0 0 C1.17539996 0.92652701 2.34010577 1.86663387 3.5 2.8125 C4.1496875 3.33457031 4.799375 3.85664062 5.46875 4.39453125 C7 6 7 6 7 9 C5.2925002 7.71937515 3.62626404 6.38232443 2 5 C2 4.34 2 3.68 2 3 C1.34 3 0.68 3 0 3 C0 2.01 0 1.02 0 0 Z " fill="#D6D3EC" transform="translate(343,673)"/>
<path d="M0 0 C1.90318884 2.85478326 2.4619099 4.41941308 3.125 7.6875 C3.29257812 8.49574219 3.46015625 9.30398438 3.6328125 10.13671875 C3.75398438 10.75160156 3.87515625 11.36648438 4 12 C3.34 12 2.68 12 2 12 C1.46809459 10.56656 0.94984742 9.12804633 0.4375 7.6875 C0.14746094 6.88699219 -0.14257812 6.08648438 -0.44140625 5.26171875 C-1 3 -1 3 0 0 Z " fill="#E1DDED" transform="translate(281,568)"/>
<path d="M0 0 C2.97 1.65 5.94 3.3 9 5 C8.34 5.66 7.68 6.32 7 7 C6.34 7 5.68 7 5 7 C5 6.34 5 5.68 5 5 C4.01 5 3.02 5 2 5 C1.34 3.35 0.68 1.7 0 0 Z " fill="#DAD7EE" transform="translate(383,707)"/>
<path d="M0 0 C1 2 1 2 0.375 4.0625 C-1 6 -1 6 -3.625 6.75 C-4.800625 6.87375 -4.800625 6.87375 -6 7 C-4.02 4.69 -2.04 2.38 0 0 Z " fill="#4EA5CC" transform="translate(341,343)"/>
<path d="M0 0 C2.375 0.3125 2.375 0.3125 5 1 C5.66 1.99 6.32 2.98 7 4 C5.35 4 3.7 4 2 4 C1.34 2.68 0.68 1.36 0 0 Z " fill="#46BDCD" transform="translate(665,326)"/>
</svg>
